<?xml version="1.0" standalone="no"?>
<!DOCTYPE svg PUBLIC "-//W3C//DTD SVG 20010904//EN"
 "http://www.w3.org/TR/2001/REC-SVG-20010904/DTD/svg10.dtd">
<svg version="1.0" xmlns="http://www.w3.org/2000/svg"
 width="136.000000pt" height="136.000000pt" viewBox="0 0 136.000000 136.000000"
 preserveAspectRatio="xMidYMid meet">

<g transform="translate(0.000000,136.000000) scale(0.100000,-0.100000)"
fill="#000000" stroke="none">
<path d="M535 1344 c-146 -31 -302 -130 -391 -247 -190 -250 -190 -584 0 -834
119 -158 334 -263 536 -263 202 0 417 105 536 263 190 250 190 584 0 834 -152
201 -426 300 -681 247z m287 -83 c42 -11 104 -34 139 -52 86 -43 205 -162 248
-248 123 -243 82 -513 -108 -702 -238 -239 -604 -239 -842 0 -87 86 -130 162
-160 279 -52 203 7 410 160 563 153 153 360 212 563 160z"/>
<path d="M662 1135 c-9 -19 -12 -153 -12 -465 0 -439 4 -490 35 -490 31 0 35
51 35 490 0 439 -4 490 -35 490 -6 0 -17 -11 -23 -25z"/>
<path d="M932 1108 c-7 -7 -12 -41 -12 -85 0 -70 -1 -73 -29 -88 -64 -32 -96
-116 -67 -173 29 -56 41 -62 126 -62 85 0 97 6 126 62 29 57 -3 141 -67 173
-28 15 -29 18 -29 88 0 65 -10 97 -30 97 -3 0 -11 -5 -18 -12z"/>
<path d="M262 1048 c-8 -8 -12 -53 -12 -135 0 -143 16 -189 76 -225 l34 -20 0
-184 c0 -107 4 -184 9 -184 5 0 13 -9 16 -20 8 -26 32 -26 40 0 3 11 11 20 16
20 5 0 9 77 9 184 l0 184 34 20 c60 36 76 82 76 225 0 101 -3 127 -16 138 -11
9 -20 10 -32 2 -14 -8 -18 -33 -22 -132 -5 -119 -6 -123 -33 -147 -38 -32 -72
-31 -108 5 -29 29 -29 31 -29 143 0 111 -7 138 -35 138 -6 0 -16 -5 -23 -12z"/>
<path d="M381 1046 c-8 -9 -11 -46 -9 -101 2 -69 7 -90 20 -98 12 -8 21 -7 32
2 20 17 23 180 4 199 -16 16 -33 15 -47 -2z"/>
<path d="M840 630 c-47 -47 -22 -152 46 -192 34 -20 34 -20 34 -98 0 -57 4
-81 15 -90 12 -10 18 -10 30 0 11 9 15 33 15 90 0 78 0 78 34 98 20 12 42 38
56 67 20 41 21 51 11 85 -6 22 -17 43 -24 47 -6 4 -54 8 -106 9 -78 1 -96 -1
-111 -16z"/>
</g>
</svg>
